<svg width="17" height="17" viewBox="0 0 17 17" fill="none" xmlns="http://www.w3.org/2000/svg">
<path d="M9.0168 9.28481C9.00055 9.24731 8.99595 9.20579 9.0036 9.16565C9.01125 9.1255 9.03079 9.08858 9.05969 9.05969C9.08858 9.03079 9.1255 9.01125 9.16565 9.0036C9.20579 8.99595 9.24731 9.00055 9.28481 9.0168L15.8718 11.6928C15.9119 11.7091 15.9458 11.7376 15.9687 11.7743C15.9916 11.811 16.0024 11.8539 15.9995 11.8971C15.9967 11.9402 15.9803 11.9814 15.9527 12.0147C15.9251 12.048 15.8877 12.0718 15.8459 12.0826L13.3247 12.7331C13.1823 12.7697 13.0522 12.8438 12.9481 12.9477C12.844 13.0516 12.7696 13.1815 12.7327 13.3239L12.0826 15.8459C12.0718 15.8877 12.048 15.9251 12.0147 15.9527C11.9814 15.9803 11.9402 15.9967 11.8971 15.9995C11.8539 16.0024 11.811 15.9916 11.7743 15.9687C11.7376 15.9458 11.7091 15.9119 11.6928 15.8718L9.0168 9.28481Z" fill="white" stroke="white" stroke-width="2" stroke-linecap="round" stroke-linejoin="round"/>
<path fill-rule="evenodd" clip-rule="evenodd" d="M4 2C2.89543 2 2 2.89543 2 4V6C2 6.55228 1.55228 7 1 7C0.447715 7 0 6.55228 0 6V4C0 1.79086 1.79086 0 4 0H6C6.55228 0 7 0.447715 7 1C7 1.55228 6.55228 2 6 2H4ZM9 1C9 0.447715 9.44771 0 10 0H12C14.2091 0 16 1.79086 16 4V6C16 6.55228 15.5523 7 15 7C14.4477 7 14 6.55228 14 6V4C14 2.89543 13.1046 2 12 2H10C9.44771 2 9 1.55228 9 1ZM1 9C1.55228 9 2 9.44772 2 10V12C2 13.1046 2.89543 14 4 14H6C6.55228 14 7 14.4477 7 15C7 15.5523 6.55228 16 6 16H4C1.79086 16 0 14.2091 0 12V10C0 9.44772 0.447715 9 1 9Z" fill="white"/>
<path d="M4 5H12" stroke="white" stroke-linecap="round"/>
<path d="M4 8H6" stroke="white" stroke-linecap="round"/>
<path d="M4 11H7" stroke="white" stroke-linecap="round"/>
</svg>
